<?xml version="1.0" encoding="iso-8859-1"?>
<!-- Generator: Adobe Illustrator 19.0.0, SVG Export Plug-In . SVG Version: 6.00 Build 0)  -->
<svg version="1.1" id="Capa_1" xmlns="http://www.w3.org/2000/svg" xmlns:xlink="http://www.w3.org/1999/xlink" x="0px" y="0px"
	 viewBox="0 0 352.512 352.512" style="enable-background:new 0 0 352.512 352.512;" xml:space="preserve">
<g>
	<g>
		<polygon points="119.744,40.224 70.224,40.224 99.12,11.312 87.808,0 39.6,48.224 87.872,96.512 99.184,85.2 70.224,56.224 
			119.744,56.224 		"/>
	</g>
</g>
<g>
	<g>
		<polygon points="280.256,0 268.944,11.312 297.856,40.224 247.92,40.224 247.92,56.224 297.856,56.224 268.88,85.2 
			280.192,96.512 328.48,48.224 		"/>
	</g>
</g>
<g>
	<g>
		<path d="M308.624,197.904c-0.64-0.64-1.328-1.2-2.064-1.632c-10.368-6.528-22.192-9.824-34.016-9.824
			c-16.368,0-32.72,6.24-45.2,18.72l-11.312,11.328V64.256c0-17.6-14.4-32-32-32c-17.6,0-32,14.4-32,32v70.4
			c-5.84-7.168-14.64-11.84-24.608-11.84c-6.928,0-13.312,2.272-18.544,6.032l-68.912,39.888
			c-9.52,5.536-15.936,15.792-15.936,27.568v52.624c0,57.216,46.368,103.584,103.584,103.584c27.712,0,52.816-10.944,71.392-28.672
			l0.016,0.144l1.776-1.776c0.032-0.032,0.064-0.064,0.08-0.08l107.744-107.76C313.184,209.824,313.184,202.448,308.624,197.904z
			 M187.968,312.256c-16.4,15.632-37.84,24.24-60.352,24.24c-48.304,0-87.584-39.28-87.584-87.584v-52.624
			c0-5.632,2.992-10.736,8.016-13.664l70.144-40.784c1.92-1.376,5.088-3.04,9.216-3.04c6.4,0,10.4,3.728,12.224,5.952l14.208,17.408
			c2.144,2.624,5.696,3.616,8.88,2.48c3.184-1.136,5.312-4.144,5.312-7.536V64.256c0-8.816,7.184-16,16-16s16,7.184,16,16v159.952
			c0,6.8,4.272,12.512,10.272,14.8c2.576,0.976,5.488,0.352,7.44-1.6l20.912-20.912c9.056-9.056,21.088-14.032,33.888-14.032
			c7.216,0,14.272,1.6,20.704,4.672L187.968,312.256z"/>
	</g>
</g>
<g>
</g>
<g>
</g>
<g>
</g>
<g>
</g>
<g>
</g>
<g>
</g>
<g>
</g>
<g>
</g>
<g>
</g>
<g>
</g>
<g>
</g>
<g>
</g>
<g>
</g>
<g>
</g>
<g>
</g>
</svg>
